<svg width="30" height="30" viewBox="0 0 30 30" fill="none" xmlns="http://www.w3.org/2000/svg">
<path d="M16.9332 15.0001L11.8417 9.90881C11.6688 9.73568 11.5802 9.51808 11.5761 9.256C11.5721 8.99412 11.6606 8.77256 11.8417 8.59131C12.0229 8.41027 12.2425 8.31975 12.5004 8.31975C12.7583 8.31975 12.9779 8.41027 13.1592 8.59131L18.777 14.2091C18.8939 14.3262 18.9764 14.4496 19.0245 14.5794C19.0726 14.7092 19.0967 14.8494 19.0967 15.0001C19.0967 15.1507 19.0726 15.2909 19.0245 15.4207C18.9764 15.5505 18.8939 15.6739 18.777 15.791L13.1592 21.4088C12.9861 21.5817 12.7685 21.6703 12.5064 21.6744C12.2445 21.6784 12.0229 21.5899 11.8417 21.4088C11.6606 21.2276 11.5701 21.008 11.5701 20.7501C11.5701 20.4921 11.6606 20.2726 11.8417 20.0913L16.9332 15.0001Z" fill="#1F1F1F"/>
</svg>
