<svg width="30" height="30" viewBox="0 0 30 30" fill="none" xmlns="http://www.w3.org/2000/svg">
<path d="M13.0668 14.9999L18.1583 20.0912C18.3312 20.2643 18.4198 20.4819 18.4239 20.744C18.4279 21.0059 18.3394 21.2274 18.1583 21.4087C17.9771 21.5897 17.7575 21.6803 17.4996 21.6803C17.2417 21.6803 17.0221 21.5897 16.8408 21.4087L11.223 15.7909C11.1061 15.6738 11.0236 15.5504 10.9755 15.4206C10.9274 15.2908 10.9033 15.1506 10.9033 14.9999C10.9033 14.8493 10.9274 14.7091 10.9755 14.5793C11.0236 14.4495 11.1061 14.3261 11.223 14.209L16.8408 8.59119C17.0139 8.41827 17.2315 8.32973 17.4936 8.32557C17.7555 8.32161 17.9771 8.41015 18.1583 8.59119C18.3394 8.77244 18.4299 8.99203 18.4299 9.24994C18.4299 9.50786 18.3394 9.72744 18.1583 9.90869L13.0668 14.9999Z" fill="#1F1F1F"/>
</svg>
