<svg width="30" height="30" viewBox="0 0 30 30" fill="none" xmlns="http://www.w3.org/2000/svg">
<path d="M15.0002 18.3469C14.8496 18.3469 14.7094 18.3228 14.5796 18.2747C14.4498 18.2266 14.3263 18.1441 14.2092 18.0272L8.59144 12.4094C8.41852 12.2363 8.32998 12.0186 8.32581 11.7566C8.32185 11.4947 8.41039 11.2731 8.59144 11.0919C8.77269 10.9108 8.99227 10.8203 9.25019 10.8203C9.5081 10.8203 9.72768 10.9108 9.90894 11.0919L15.0002 16.1834L20.0914 11.0919C20.2646 10.919 20.4822 10.8304 20.7442 10.8263C21.0061 10.8223 21.2277 10.9108 21.4089 11.0919C21.59 11.2731 21.6805 11.4927 21.6805 11.7506C21.6805 12.0085 21.59 12.2281 21.4089 12.4094L15.7911 18.0272C15.674 18.1441 15.5506 18.2266 15.4208 18.2747C15.291 18.3228 15.1508 18.3469 15.0002 18.3469Z" fill="#2D3541"/>
</svg>
