<svg width="150" height="30" viewBox="0 0 150 30" fill="none" xmlns="http://www.w3.org/2000/svg">
<g clip-path="url(#clip0_1_559)">
<path d="M0 27.6099H10.2563V20.0464H3.85125C1.71563 20.0464 0.2925 18.5546 0.2925 16.2824V0.677734H27.6656V20.0464H17.7V26.9652C17.7 27.3387 17.9269 27.6099 18.2831 27.6099H27.9581V29.1706H0V27.6099ZM20.5144 2.23839H7.44187V17.5364C7.44187 18.1143 7.79812 18.4858 8.31562 18.4858H20.5144V2.23839Z" fill="#0A0B0E"/>
<path d="M30.5437 14.8911C30.5437 4.95323 33.3581 0 39.2156 0C45.0731 0 47.9193 4.95323 47.9193 14.8911C47.9193 24.829 45.3956 29.7823 39.2156 29.7823C33.0356 29.7823 30.5437 24.829 30.5437 14.8911ZM40.9293 14.8911C40.9293 4.23973 40.605 1.256 39.2137 1.256C37.8225 1.256 37.5318 4.24169 37.5318 14.8911C37.5318 25.5406 37.8562 28.5263 39.2137 28.5263C40.5712 28.5263 40.9293 25.5406 40.9293 14.8911ZM49.2787 0.644706H56.43V12.7546H59.2443V14.6533H56.43V29.1376H49.2787V0.644706Z" fill="#0A0B0E"/>
<path d="M61.0874 11.7367H72.5418V8.92203C69.5962 9.83799 65.7149 10.2114 61.2168 10.2114V8.95741C67.1699 8.95741 71.1824 5.9383 71.1824 1.29171V0.682381H78.8831V1.903C78.8831 5.05773 77.0381 7.16089 73.8356 8.4503H79.9837V11.1313C79.9837 11.5048 80.2106 11.7407 80.5649 11.7407H89.0418V13.3013H61.0856V11.7407L61.0874 11.7367ZM89.3662 27.6106V29.1713H63.6431C62.1224 29.1713 61.1193 28.0529 61.1193 26.6613C61.1193 25.2696 62.1224 24.1159 63.6431 24.1159H81.9243V22.5218H63.6431C62.1224 22.5218 61.1193 21.4702 61.1193 20.1474C61.1193 18.8246 62.1224 17.773 63.6431 17.773H81.9243V16.1435H61.7024V14.5829H86.5199C88.0406 14.5829 89.0437 15.7013 89.0437 16.9573C89.0437 18.2801 88.0406 19.3317 86.5199 19.3317H68.2387V20.9611H86.5199C88.0406 20.9611 89.0437 22.0795 89.0437 23.3021C89.0437 24.6584 88.0406 25.6765 86.5199 25.6765H68.2387V27.6106H89.3681H89.3662ZM80.0793 6.14076C80.0793 3.79977 81.5681 2.20569 83.8968 2.20569C86.2256 2.20569 87.6506 3.79977 87.6506 6.14076C87.6506 8.48175 86.1299 10.178 83.8968 10.178C81.6637 10.178 80.0793 8.54858 80.0793 6.14076Z" fill="#0A0B0E"/>
<path d="M91.6294 20.9624H119.586V22.523H109.328V29.1706H101.886V22.523H91.6294V20.9624ZM119.361 16.9251V18.4858H94.3481C92.73 18.4858 91.6631 17.2298 91.6631 15.6711C91.6631 14.1124 92.73 12.8564 94.3481 12.8564H112.209V10.3798H94.3481C92.73 10.3798 91.6631 9.12574 91.6631 7.56508C91.6631 6.00442 92.73 4.75039 94.3481 4.75039H112.209V2.24036H91.9538V0.677734H116.642C118.292 0.677734 119.361 1.93177 119.361 3.49243C119.361 5.05308 118.294 6.30712 116.642 6.30712H98.7806V8.81714H116.642C118.292 8.81714 119.361 10.0378 119.361 11.5984C119.361 13.1591 118.294 14.4131 116.642 14.4131H98.7806V16.9231H119.361V16.9251Z" fill="#0A0B0E"/>
<path d="M121.494 16.7895C124.504 16.7895 127.74 13.6347 127.74 8.20782V0.677734H134.437V8.20782C134.437 14.3482 128.484 18.0455 121.494 18.0455V16.7895ZM129.744 19.2995V26.6606C129.744 27.203 130.1 27.6099 130.65 27.6099H150V29.1706H126.185C124.05 29.1706 122.595 27.6453 122.595 25.4065V19.3015H129.746L129.744 19.2995ZM137.899 11.0579C139.873 11.0579 141.199 12.4829 141.199 14.5527C141.199 16.6224 139.871 18.0474 137.899 18.0474C135.926 18.0474 134.567 16.6224 134.567 14.5527C134.567 12.4829 135.926 11.0579 137.899 11.0579ZM142.687 8.91935H137.479V7.35869H142.687V4.88208H137.479V3.32142H142.687V0.677734H149.839V23.3702H142.687V8.91935Z" fill="#0A0B0E"/>
</g>
<defs>
<clipPath id="clip0_1_559">
<rect width="150" height="30" fill="white"/>
</clipPath>
</defs>
</svg>
