<svg width="30" height="30" viewBox="0 0 30 30" fill="none" xmlns="http://www.w3.org/2000/svg">
<path d="M7.78809 16.875C7.27246 16.875 6.83111 16.6914 6.46402 16.3241C6.09673 15.957 5.91309 15.5156 5.91309 15C5.91309 14.4844 6.09673 14.043 6.46402 13.6759C6.83111 13.3086 7.27246 13.125 7.78809 13.125C8.30371 13.125 8.74517 13.3086 9.11246 13.6759C9.47954 14.043 9.66309 14.4844 9.66309 15C9.66309 15.5156 9.47954 15.957 9.11246 16.3241C8.74517 16.6914 8.30371 16.875 7.78809 16.875ZM14.9996 16.875C14.484 16.875 14.0427 16.6914 13.6756 16.3241C13.3083 15.957 13.1246 15.5156 13.1246 15C13.1246 14.4844 13.3083 14.043 13.6756 13.6759C14.0427 13.3086 14.484 13.125 14.9996 13.125C15.5153 13.125 15.9566 13.3086 16.3237 13.6759C16.691 14.043 16.8746 14.4844 16.8746 15C16.8746 15.5156 16.691 15.957 16.3237 16.3241C15.9566 16.6914 15.5153 16.875 14.9996 16.875ZM22.2112 16.875C21.6956 16.875 21.2541 16.6914 20.8868 16.3241C20.5198 15.957 20.3362 15.5156 20.3362 15C20.3362 14.4844 20.5198 14.043 20.8868 13.6759C21.2541 13.3086 21.6956 13.125 22.2112 13.125C22.7268 13.125 23.1682 13.3086 23.5353 13.6759C23.9026 14.043 24.0862 14.4844 24.0862 15C24.0862 15.5156 23.9026 15.957 23.5353 16.3241C23.1682 16.6914 22.7268 16.875 22.2112 16.875Z" fill="#ABAEB3"/>
</svg>
